<svg width="231" height="231" viewBox="0 0 231 241" fill="none" xmlns="http://www.w3.org/2000/svg"><path d="M42.9 200C42.9 202 42.4 195 46.9 194C51.4 193 84 196.5 105.9 197C127.8 197.5 164.9 193.5 171.4 194.5C177.9 195.5 167.9 191 176.9 198M42.9 200C37.4 201 20.9 176.8 11.9 155C2.88 133.2 1.14 119.3 3.39 101.5C5.64 83.7 7.39 52.5 35.4 31.5C63.4 10.5 73.4 5 117.4 2.5C162.9 4 179.9 23 201.4 42.5C220.4 62 231.6 104.9 226.4 130.5C221.1 156.1 198.5 184.5 192.9 188.5C187.2 192.5 179.4 199.9 176.9 198M42.9 200C42.9 200 44.9 205.5 47.9 205.5C50.9 205.5 75.7 214.8 81.9 212C86.4 206 91.5 205.1 99.4 205.5C107.3 206 118.9 210 119.4 216.5C127.5 220.4 143.8 214.4 152.9 212C162 209.6 172.9 207.5 175.4 205.5C177.9 203.5 176.9 198 176.9 198" stroke="black" stroke-width="5" stroke-linecap="round"/><path d="M46.4 193.5C46.4 193.5 23.7 163.5 21.9 118.5C19.9 70 76.9 49 76.9 49M159.9 54C159.9 54 201.4 89 196.9 128C193.2 160.1 172.9 194 172.9 194" stroke="black" stroke-width="5" stroke-linecap="round"/><path d="M81.9 212C81.9 212 74.5 221.9 77.4 229C80.2 236.1 94.7 238.3 100.4 238C106.1 237.7 113.8 237 117.9 232.5C121.9 228 119.4 216.5 119.4 216.5M78.9 218C78.9 218 90.9 217.1 98.9 217.5C106.9 217.9 119.9 220 119.9 220M100.8 228.6L99.9 229.1C98.7 229.6 97.9 230.9 97.9 232.2" stroke="black" stroke-width="5" stroke-linecap="round"/><path d="M100.9 42.5C100.9 42.5 99.7 41 101.4 40C103.1 39 104.4 40.5 104.4 40.5M128.4 45C128.4 45 130.7 42.4 133.9 42C135.5 41.8 137.3 44.1 138.9 45.5C140.4 46.8 142.4 47 142.4 47M117.4 41.5C118.5 30.3 108.2 20 96.9 20C85.6 20 77 33.9 77.4 44C77.8 54.1 82.9 60.7 92.9 62C102.9 63.3 116.3 52.7 117.4 41.5ZM118.9 43C120.2 31.2 131.4 21.5 138.9 21C146.3 20.5 152.4 22.4 157.4 28C162.4 33.6 164.6 45.8 159.9 54C155.2 62.2 149.3 66.7 139.9 66.5C130.5 66.3 117.6 54.8 118.9 43Z" stroke="black" stroke-width="5" stroke-linecap="round"/><path d="M100.4 69.3C99.6 76.6 105.3 82.3 112.7 83.4C120.1 84.5 128.6 78.2 128.3 70.7C128.1 63.2 122.8 59.4 115.9 58.5C109 57.7 101.3 62 100.4 69.3Z" stroke="black" stroke-width="5" stroke-linecap="round"/><path d="M112.4 84L103.9 166.5M32.4 106C32.4 106 41.7 129.5 59.4 145.5C77.1 161.5 86.4 164.5 105.9 166.5C139.4 169.9 182.9 124 182.9 124" stroke="black" stroke-width="5" stroke-linecap="round"/><path d="M35.4 60.5L78.9 80.5M15.4 102.5C15.4 102.5 22.6 98.2 33.4 96C44.2 93.8 70.4 100.5 70.4 100.5M18.9 138.5L70.4 117.5M138.9 90.5C138.9 90.5 156.7 83.2 167.9 81.5C179.1 79.8 196.9 81.5 196.9 81.5M142.9 107C142.9 107 162.3 105.3 174.4 107C186.4 108.7 204.4 115.5 204.4 115.5M140.9 130C140.9 130 156.6 137.4 167.9 141.5C179.2 145.6 198.9 153 198.9 153" stroke="black" stroke-width="5" stroke-linecap="round"/><g fill="none" stroke="black" stroke-width="5" stroke-linecap="round" stroke-linejoin="round"><path d="M44 203L22 238"/><path d="M72 212L54 238"/><path d="M137 217L150 238"/><path d="M176 205C185 215 195 225 200 238"/></g><style>path{animation:g 8000ms linear infinite}@keyframes g{0%{animation-timing-function:ease;stroke-dasharray:0 100;opacity:0}10%{stroke-dasharray:100 0;opacity:1}88%{animation-timing-function:ease;stroke-dasharray:100 0;opacity:1}93%{stroke-dasharray:0 100;opacity:0}100%{stroke-dasharray:0 100;opacity:0}}</style></svg>
