<svg width="231" height="231" viewBox="0 0 231 241" fill="none" xmlns="http://www.w3.org/2000/svg">
<path d="M42.8884 200.002C42.8884 202.002 42.3884 195.002 46.8884 194.002C51.3884 193.002 83.968 196.546 105.888 197.002C127.809 197.458 164.888 193.502 171.388 194.502C177.888 195.502 167.888 191.002 176.888 198.002M42.8884 200.002C37.3884 201.002 20.8944 176.761 11.8884 155.002C2.88232 133.243 1.13643 119.293 3.38836 101.502C5.64028 83.7122 7.38836 52.5023 35.3884 31.5023C63.3884 10.5023 73.3884 5.00234 117.388 2.50234C162.888 4.00234 179.888 23.0307 201.388 42.5023C220.388 62.0023 231.64 104.878 226.388 130.502C221.137 156.127 198.536 184.531 192.888 188.502C187.241 192.473 179.385 199.944 176.888 198.002M42.8884 200.002C42.8884 200.002 44.8884 205.502 47.8884 205.502C50.8884 205.502 75.708 214.842 81.8884 212.002C86.3884 206.002 91.4938 205.05 99.3884 205.502C107.283 205.955 118.888 210.002 119.388 216.502C127.476 220.428 143.755 214.419 152.888 212.002C162.022 209.586 172.888 207.502 175.388 205.502C177.888 203.502 176.888 198.002 176.888 198.002" stroke="black" stroke-width="5" stroke-linecap="round"/>
<path d="M46.3884 193.502C46.3884 193.502 23.7443 163.508 21.8884 118.502C19.8884 70.0023 76.8884 49.0023 76.8884 49.0023M159.888 54.0023C159.888 54.0023 201.388 89.0023 196.888 128.002C193.186 160.091 172.888 194.002 172.888 194.002" stroke="black" stroke-width="5" stroke-linecap="round"/>
<path d="M81.8884 212.002C81.8884 212.002 74.5484 221.903 77.3884 229.002C80.2283 236.102 94.6564 238.337 100.388 238.002C106.12 237.667 113.845 236.982 117.888 232.502C121.932 228.023 119.388 216.502 119.388 216.502M78.8884 218.002C78.8884 218.002 90.873 217.113 98.8884 217.502C106.904 217.891 119.888 220.002 119.888 220.002M100.811 228.645L99.9227 229.066C98.7165 229.638 97.9476 230.853 97.9476 232.188" stroke="black" stroke-width="5" stroke-linecap="round"/>
<path d="M100.888 42.5023C100.888 42.5023 99.7217 41.0023 101.388 40.0023C103.055 39.0023 104.388 40.5023 104.388 40.5023M128.388 45.0023C128.388 45.0023 130.711 42.407 133.888 42.0023C135.539 41.7922 137.257 44.1493 138.888 45.5023C140.398 46.7541 142.388 47.0023 142.388 47.0023M117.388 41.5023C118.465 30.3014 108.214 19.982 96.8884 20.0023C85.5632 20.0227 76.9272 33.9252 77.3884 44.0023C77.8495 54.0795 82.8816 60.7273 92.8884 62.0023C102.895 63.2774 116.312 52.7033 117.388 41.5023ZM118.888 43.0023C120.197 31.1974 131.432 21.509 138.888 21.0023C146.345 20.4957 152.398 22.4391 157.388 28.0023C162.379 33.5656 164.557 45.8169 159.888 54.0023C155.22 62.1878 149.31 66.6763 139.888 66.5023C130.467 66.3283 117.579 54.8073 118.888 43.0023Z" stroke="black" stroke-width="5" stroke-linecap="round"/>
<path d="M100.441 69.2772C99.615 76.6091 105.301 82.2739 112.688 83.41C120.075 84.5461 128.633 78.1574 128.344 70.6677C128.056 63.1781 122.838 59.3519 115.895 58.5373C108.952 57.7228 101.268 61.9453 100.441 69.2772Z" stroke="black" stroke-width="5" stroke-linecap="round"/>
<path d="M112.388 84.0023L103.888 166.502M32.3884 106.002C32.3884 106.002 41.7151 129.502 59.3884 145.502C77.0616 161.502 86.3884 164.502 105.888 166.502C139.388 169.938 182.888 124.002 182.888 124.002" stroke="black" stroke-width="5" stroke-linecap="round"/>
<path d="M35.3884 60.5023L78.8884 80.5023M15.3884 102.502C15.3884 102.502 22.6088 98.162 33.3884 96.0023C44.1679 93.8426 70.3884 100.502 70.3884 100.502M18.8884 138.502L70.3884 117.502M138.888 90.5023C138.888 90.5023 156.685 83.1609 167.888 81.5023C179.091 79.8438 196.888 81.5023 196.888 81.5023M142.888 107.002C142.888 107.002 162.328 105.318 174.388 107.002C186.448 108.687 204.388 115.502 204.388 115.502M140.888 130.002C140.888 130.002 156.579 137.359 167.888 141.502C179.198 145.646 198.888 153.002 198.888 153.002" stroke="black" stroke-width="5" stroke-linecap="round"/>
<g fill="none" stroke="black" stroke-width="5" stroke-linecap="round" stroke-linejoin="round">
    <path d="M44 204 L22 238" />
    <path d="M72 211 L54 238" />
    <path d="M137 216 L150 238" />
    <path d="M176 205 C185 215 195 225 200 238" />
  </g>
<style>
path {
  animation: grow 8000ms linear infinite;
}

@keyframes grow {
  0%   { 
    animation-timing-function: ease;
    stroke-dasharray: 0 100; 
    opacity: 0;
  }
  10%  { 
    stroke-dasharray: 100 0; 
    opacity: 1;
  }
  88%  { 
    animation-timing-function: ease;
    stroke-dasharray: 100 0; 
    opacity: 1;
  }
  93% { 
    stroke-dasharray: 0 100; 
    opacity: 0;
  }
  100% { 
    stroke-dasharray: 0 100; 
    opacity: 0;
  }
}
</style>
</svg>
